<svg height="1987" viewBox="-.04 -1.12 358.83 284.06082512" width="2500" xmlns="http://www.w3.org/2000/svg"><path d="m242.31 101.25q-10.32-17-20.56-34c-5.24-8.68-10.5-17.36-15.69-26.07a14.38 14.38 0 0 0 -19.62-5.18 16.31 16.31 0 0 0 -5.69 6q-6.18 10.39-12.44 20.75c-8 13.35-16.13 26.65-24.08 40a13.65 13.65 0 0 0 .26 15.18 13.49 13.49 0 0 0 12.09 6.5h75.08c7.5 0 13.4-6.79 13.56-13.53a17.4 17.4 0 0 0 -2.91-9.65zm-11.75-1.25a5.46 5.46 0 0 1 -5.64 4.27h-48.19c-4.55-.16-7-4.27-4.79-8.3 1.63-3 3.47-5.92 5.24-8.86l18.28-30.36c.25-.41.48-.83.76-1.22 2.68-3.64 7.13-3.51 9.5.32 2 3.19 3.88 6.43 5.81 9.64l17.8 29.54c.93 1.56 1.67 3.13 1.23 4.97z" fill="#daab6b"/><path d="m265.57 109.28q-26.65-44.22-53.17-88.5c-2.52-4.19-5.14-8.26-8.82-11.58-8.47-7.61-18.5-10.32-29.58-8.79-11.32 1.59-19.9 7.69-25.81 17.53q-27.43 45.69-54.89 91.37c-4.68 7.75-6.6 16-5.17 25a36 36 0 0 0 35.87 30.34h110.8a38.23 38.23 0 0 0 8.54-1 36 36 0 0 0 22.21-54.42zm-19.77 35.06a24.74 24.74 0 0 1 -4.55.22h-110.33c-6.87 0-12.45-2.75-16.34-8.43-4.71-6.92-4.89-14.17-.81-21.44 2.38-4.25 5-8.36 7.51-12.53l39.13-65.08q4.76-7.91 9.52-15.81c5.89-9.72 19.32-12.25 28.69-5.15a20.47 20.47 0 0 1 5.11 6q7.05 11.7 14.08 23.41c13.73 22.86 27.35 45.79 41.25 68.55a20 20 0 0 1 -13.26 30.26z" fill="#daab6b"/><path d="m65.24 241.52c-1.65-11.43-11.47-24.05-25.75-25.83-8.57-1.06-16.18.86-22.49 7a5 5 0 0 1 -2 1.55v-2.84-27.31c0-2 0-2-2-2h-11c-1.86 0-1.86 0-1.91 1.84v82.42a13.64 13.64 0 0 1 0 1.43c-.13 1.17.41 1.52 1.53 1.51 3.43-.05 6.87 0 10.31 0s2.87.42 3-2.91c0-1.51-.28-3.07.35-4.93.68.79 1.12 1.37 1.62 1.87a24.19 24.19 0 0 0 11 6.49 29.77 29.77 0 0 0 32-12c5.47-8.01 6.69-16.81 5.34-26.29zm-16.24 14.48c-3.26 7.82-10.84 12-19.39 10.73a17.6 17.6 0 0 1 -14.92-15.83c-.58-5.7.36-11 4.21-15.46 4.76-5.58 10.89-7 17.75-5.66s11 6.06 13.11 12.6a22.71 22.71 0 0 1 -.76 13.62zm209.87-17.52c.61-.51 1.27-1 1.89-1.6 6.68-6.19 13.38-12.37 20-18.61a4.71 4.71 0 0 1 3.6-1.43c4.87.09 9.75 0 14.63 0 .6 0 1.2.06 2.27.12l-27.91 25.54 29.23 36.23c-.57.72-1.17.47-1.68.47h-14.63a3.55 3.55 0 0 1 -3.21-1.54c-6.06-7.83-12.19-15.61-18.31-23.4a7.13 7.13 0 0 0 -1.85-2 38 38 0 0 0 -4 3.36c-.73.62-.48 1.47-.49 2.24v20.13c0 .78-.26 1.19-1.1 1.19h-12.67c-.84 0-1.12-.42-1.11-1.18v-83.1c0-3.33-.29-2.85 3-2.88s6.55 0 9.83 0c2.07 0 2.09 0 2.09 2.1v43.14c.02.37-.12.79.42 1.22zm-134.45.52c-3.65-6-8.71-9.66-15.78-9.9a18.24 18.24 0 0 0 -13.94 5.26c-7.61 7.46-7.17 20.58.79 27.9 6.8 6.25 21.32 6.66 28.94-5.34 3.7 2.16 7.4 4.33 11.13 6.47.94.54.62 1.1.21 1.76a31.16 31.16 0 0 1 -8.26 8.9 33.87 33.87 0 0 1 -23 6.39c-7.6-.52-14.33-3-20-8.17a30.42 30.42 0 0 1 -9.81-18.94 34.88 34.88 0 0 1 1.19-16.09c3.92-11.7 12.17-18.73 24.17-21.12 8.44-1.68 16.71-.84 24.42 3.35a28 28 0 0 1 11.52 11.53c.53 1 .63 1.61-.59 2.22-3.67 1.78-7.23 3.78-10.99 5.78zm68.68 17.82c3.78 2.19 7.48 4.37 11.22 6.5.93.52.69 1 .27 1.73a29.22 29.22 0 0 1 -3.76 4.95 33.39 33.39 0 0 1 -26.54 10.48 32.49 32.49 0 0 1 -12.77-2.87c-11.84-5.71-17.85-15.25-18.35-28.31-.29-7.63 1.3-14.78 6-21 5.78-7.74 13.65-11.87 23.19-12.76a36.29 36.29 0 0 1 17.87 2.4 28.36 28.36 0 0 1 14.41 12.77c.91 1.67.91 1.69-.84 2.63q-4.32 2.32-8.66 4.63c-1.79 1-1.81 1-3-.66a18.43 18.43 0 0 0 -10.42-7.6c-11-2.86-21.25 3.64-23.22 13.92-1.15 6.05-.16 11.72 3.94 16.65 7.79 9.37 22.69 7.73 29.39-1.55.41-.58.79-1.19 1.27-1.91zm144.06-27.33h-27.9c-2.53 0-2.29.12-2.29-2.37v-8.63c0-1.13.33-1.65 1.5-1.51a7.69 7.69 0 0 0 1 0h45.58c2.64 0 2.61-.34 2.6 2.57 0 1.68-.11 3.37 0 5a5.79 5.79 0 0 1 -1.57 4.33q-13.89 17.28-27.72 34.62c-.72.9-1.43 1.81-2.48 3.14h31.68c.94 0 1.23.44 1.22 1.32v10.07c0 .79-.31 1.19-1.13 1.16h-49.93c-2.27 0-2.28 0-2.29-2.4 0-1.92.1-3.85 0-5.75a5.27 5.27 0 0 1 1.44-3.89q14.57-17.82 29.06-35.69a4.84 4.84 0 0 0 1.23-1.97zm-115.16 33.84a8.36 8.36 0 0 1 8.74 8.73 8.79 8.79 0 0 1 -8.67 9 9 9 0 0 1 -9.06-8.9 8.61 8.61 0 0 1 8.99-8.83z" fill="#27ae60"/><path d="m242.31 101.25q-10.32-17-20.56-34c-5.24-8.68-10.5-17.36-15.69-26.07a14.38 14.38 0 0 0 -19.62-5.18 16.31 16.31 0 0 0 -5.69 6q-6.18 10.39-12.44 20.75c-8 13.35-16.13 26.65-24.08 40a13.65 13.65 0 0 0 .26 15.18 13.49 13.49 0 0 0 12.09 6.5h75.08c7.5 0 13.4-6.79 13.56-13.53a17.4 17.4 0 0 0 -2.91-9.65zm-11.75-1.25a5.46 5.46 0 0 1 -5.64 4.27h-48.19c-4.55-.16-7-4.27-4.79-8.3 1.63-3 3.47-5.92 5.24-8.86l18.28-30.36c.25-.41.48-.83.76-1.22 2.68-3.64 7.13-3.51 9.5.32 2 3.19 3.88 6.43 5.81 9.64l17.8 29.54c.93 1.56 1.67 3.13 1.23 4.97z" fill="#fff"/><path d="m242.31 101.25q-10.32-17-20.56-34c-5.24-8.68-10.5-17.36-15.69-26.07a14.38 14.38 0 0 0 -19.62-5.18 16.31 16.31 0 0 0 -5.69 6q-6.18 10.39-12.44 20.75c-8 13.35-16.13 26.65-24.08 40a13.65 13.65 0 0 0 .26 15.18 13.49 13.49 0 0 0 12.09 6.5h75.08c7.5 0 13.4-6.79 13.56-13.53a17.4 17.4 0 0 0 -2.91-9.65zm-11.75-1.25a5.46 5.46 0 0 1 -5.64 4.27h-48.19c-4.55-.16-7-4.27-4.79-8.3 1.63-3 3.47-5.92 5.24-8.86l18.28-30.36c.25-.41.48-.83.76-1.22 2.68-3.64 7.13-3.51 9.5.32 2 3.19 3.88 6.43 5.81 9.64l17.8 29.54c.93 1.56 1.67 3.13 1.23 4.97z" fill="#daab6b"/></svg>